<?xml version="1.0" encoding="UTF-8"?>
<!DOCTYPE svg PUBLIC "-//W3C//DTD SVG 1.1//EN" "http://www.w3.org/Graphics/SVG/1.1/DTD/svg11.dtd">
<!-- Creator: CorelDRAW 2019 (64-Bit) -->
<svg xmlns="http://www.w3.org/2000/svg" xml:space="preserve" width="200" height="100" version="1.1" style="shape-rendering:geometricPrecision; text-rendering:geometricPrecision; image-rendering:optimizeQuality; fill-rule:evenodd; clip-rule:evenodd"
viewBox="0 0 6589 1079.94"
 xmlns:xlink="http://www.w3.org/1999/xlink"
 xmlns:xodm="http://www.corel.com/coreldraw/odm/2003">
 <defs>
  <style type="text/css">
   <![CDATA[
    .fil0 {fill:#332C2B;fill-rule:nonzero}
    .fil1 {fill:#E62129;fill-rule:nonzero}
   ]]>
  </style>
 </defs>
 <g id="Layer_x0020_1">
  <metadata id="CorelCorpID_0Corel-Layer"/>
  <path class="fil0" d="M157.17 181.47l407.23 0c64.1,0 113.53,14.73 147.83,44.42 34.44,29.43 51.48,67.26 51.48,113.73 0,49.13 -17.49,90.54 -52.54,123.82 -35.27,33.49 -93.41,55.73 -174.62,66.69 63.84,5.66 112.6,24.12 145.87,55.4 33.2,30.97 49.82,70.92 49.82,119.27 0,43.41 -12.82,81.84 -38.33,115.41 -18.69,24.84 -50.68,46.91 -95.97,66.36 -45.41,19.56 -94.24,29.28 -146.21,29.28l-451.73 0 10.85 -44.39 47.78 0c27.81,0 45.23,-14.88 52.46,-44.62l140.66 -552.41c1.58,-6.52 2.42,-13.15 2.42,-19.22 0,-9.08 -3.48,-16.25 -10.41,-21.36 -6.96,-5.35 -19.66,-7.96 -37.91,-7.96l-59.12 0 10.44 -44.42zm170.82 377.38l-67.34 262.39c-2.11,7.23 -2.91,14.23 -2.91,20.64 0,9.35 3.66,16.28 10.93,20.8 7.32,4.75 21.75,6.75 43.71,6.75l80.08 0c37.76,0 69.22,-7.05 94.77,-21.7 25.59,-14.59 46.69,-37.58 63.26,-69.57 16.32,-31.88 24.66,-65.57 24.66,-100.88 0,-36.66 -11.96,-65.56 -35.39,-86.82 -23.78,-21.17 -58.14,-31.61 -103.59,-31.61l-108.18 0zm13.64 -46.24l94.81 0c28.41,0 53.88,-5.23 76.19,-15.44 29.69,-13.76 53.62,-35.35 71.1,-64.4 17.64,-29.28 26.42,-62.44 26.42,-99.44 0,-40.74 -12.21,-69.83 -36.85,-87.36 -17.31,-12.12 -48.96,-18.27 -95.04,-18.27 -26.87,0 -44.95,2.98 -54.26,8.4 -9.31,5.58 -16.05,16.28 -20.27,31.89l-62.1 244.62z"/>
  <path class="fil0" d="M1259.33 181.47l66.17 0 83.02 633.21c2.44,19.59 8.55,33.38 18.13,40.84 13.26,10.66 30.85,15.94 52.83,15.94l21.88 0 -11.64 44.39 -322.29 0 10.89 -44.39 23.66 0c24.76,0 41.79,-3.2 50.68,-10.06 9.08,-6.63 13.61,-16.7 13.61,-30.37 0,-4.83 -0.53,-10.21 -1.51,-16.35l-17.37 -131.9 -236.76 0 -46.95 76.35c-12.96,21.74 -19.4,41.83 -19.4,59.87 0,16.52 5.04,29.21 15.41,38.52 10.17,9.38 26.03,13.94 47.21,13.94l19.34 0 -10.97 44.39 -251.19 0 10.96 -44.39c21.6,-1.55 38.89,-6.81 51.59,-16.16 24.27,-18.1 42.5,-37.24 54.86,-57.66l377.84 -616.17zm-53.7 183.28l-161.04 262.57 195.57 0 -34.53 -262.57z"/>
  <path class="fil0" d="M1728.74 181.47l211.21 0 236.6 511.76 83.32 -360.62c3.73,-15.07 5.62,-27.67 5.62,-36.89 0,-21.29 -6.79,-38.21 -20.17,-50.84 -13.3,-12.62 -31.35,-18.99 -53.8,-18.99l-20.28 0 11.87 -44.42 241.73 0 -12.44 44.42c-25.13,1.33 -44.5,8.63 -57.77,22 -18.68,18.92 -31.79,44.44 -39.56,76.65l-136.48 591.31 -54.04 0 -272.33 -583.06 -108.07 404.97c-4.71,19.41 -7.2,34.94 -7.2,47.07 0,25.63 8.41,46.53 24.84,62.02 16.53,15.8 40.69,23.89 72.15,24.61l-10.43 44.39 -269.92 0 10.96 -44.39c31.28,-1.55 56.41,-10.97 76.09,-28.56 19.66,-17.86 33.42,-42.35 41.29,-73.6l126.2 -473.43c3.21,-11.8 4.83,-20.65 4.83,-26.12 0,-13.57 -5.32,-24.33 -15.83,-32.25 -10.51,-7.88 -29.24,-11.61 -56.06,-11.61l-24.12 0 11.79 -44.42z"/>
  <path class="fil0" d="M2546.25 181.47l327 0 -12.8 44.42 -37.24 0c-16.5,0 -28.98,3.73 -37.42,11.54 -8.66,7.9 -15.52,21.73 -20.42,41.78l-74.16 291.93 281.45 -257.22c20.58,-19.59 30.9,-36.63 30.9,-51.06 0,-10.9 -4.34,-19.68 -12.93,-26.61 -8.36,-6.93 -21.63,-10.36 -39.19,-10.36l-18.42 0 11.34 -44.42 270.37 0 -11.68 44.42c-28.75,2.26 -53.33,8.63 -73.68,18.39 -20.42,10.02 -45.14,28.94 -74.64,56.71l-184.56 168.86 161.23 355.56c5.13,11.79 11.01,20.58 17.71,26.57 6.83,6.18 16.82,11.19 30.07,15.45 8.53,2.48 24.31,4.03 47.45,4.03l-11.54 44.39 -327.97 0 11.97 -44.39 42.47 0c16.17,0 27.7,-2.79 34.63,-8.17 6.93,-5.62 10.4,-12.82 10.4,-21.63 0,-6.98 -1.35,-13.42 -4.33,-19.56l-116.52 -256.85 -95.29 86.79 -45.37 178.8c-0.98,3.62 -1.36,7.46 -1.36,11.34 0,9.12 3.55,16.4 10.75,21.36 7.26,5.28 19.86,7.92 38.01,7.92l50 0 -11.79 44.39 -334.04 0 11.49 -44.39 28.25 0c19,0 33.17,-3.73 42.55,-10.93 9.15,-7.2 15.9,-18.87 19.97,-35.12l140.59 -552.56c1.58,-5.32 2.38,-10.75 2.38,-16.21 0,-9.79 -3.54,-17.18 -10.89,-22.69 -7.35,-5.3 -19.6,-8.06 -37.42,-8.06l-38.29 0 10.97 -44.42z"/>
  <path class="fil0" d="M4593.23 178.49l335.88 0c96.01,0 169.36,26.14 220.24,78.93 50.65,52.45 76.14,125.92 76.14,219.67 0,61.21 -11.02,121.07 -33.23,180.15 -22.14,59.16 -50.54,107.03 -84.74,143.56 -34.47,36.75 -78.33,66.18 -132.29,88.16 -53.82,22.29 -114.44,33.4 -181.35,33.4l-354.36 0 11.91 -44.96 39.35 0c26.99,0 44.24,-16.37 52.26,-49.2l142.75 -560.89c1.34,-4.47 1.87,-8.78 1.87,-13.55 0,-9.62 -3.7,-17.03 -10.95,-22.21 -7.33,-5.27 -21.53,-8.06 -42.18,-8.06l-55.11 0 13.81 -45zm193.06 696.85c36.07,0 70.42,-9.24 102.94,-27.98 32.52,-18.9 60.87,-45.84 85.35,-81.29 24.38,-35.35 45.76,-86.01 64.08,-152.38 18.24,-66.1 27.48,-129.35 27.48,-189.81 0,-65.04 -14.58,-115.62 -43.97,-151.8 -25.57,-31.07 -65.03,-46.76 -118.51,-46.76 -24.12,0 -40.35,2.79 -48.97,8.21 -8.37,5.57 -14.66,15.38 -18.4,29.31l-144.32 566.89c-1.25,5.15 -1.9,9.72 -1.9,14.04 0,10.07 2.78,17.59 8.12,22.14 7.33,6.52 17.94,9.43 32.15,9.43l55.95 0z"/>
  <path class="fil0" d="M5452.37 178.49l331.35 0 -13.02 45 -37.71 0c-16.8,0 -29.35,3.78 -37.97,11.68 -8.82,8.01 -15.51,22.02 -20.58,42.36l-75.15 295.67 285.19 -260.55c20.7,-19.84 31.22,-37.1 31.22,-51.71 0,-11.04 -4.3,-19.93 -13.05,-26.96 -8.59,-7.02 -21.87,-10.49 -39.77,-10.49l-18.59 0 11.26 -45 274.01 0 -11.75 45c-29.16,2.29 -54.24,8.74 -74.77,18.63 -20.61,10.15 -45.73,29.31 -75.43,57.44l-187.29 171.04 163.56 360.16c5.1,11.94 11.14,20.83 18.04,26.9 6.77,6.27 16.99,11.34 30.35,15.66 8.7,2.51 24.66,4.08 47.98,4.08l-11.53 44.96 -332.18 0 12.02 -44.96 43.1 0c16.29,0 28.01,-2.83 35.07,-8.28 7.03,-5.69 10.46,-12.98 10.46,-21.91 0,-7.06 -1.34,-13.59 -4.24,-19.81l-117.98 -260.16 -96.67 87.9 -46 181.11c-0.99,3.67 -1.42,7.56 -1.42,11.49 0,9.24 3.75,16.61 11,21.64 7.36,5.35 20.04,8.02 38.36,8.02l50.73 0 -11.92 44.96 -338.32 0 11.41 -44.96 28.86 0c19.12,0 33.62,-3.78 42.86,-11.07 9.43,-7.29 16.18,-19.12 20.57,-35.57l142.22 -559.71c1.61,-5.39 2.36,-10.88 2.36,-16.41 0,-9.92 -3.7,-17.41 -10.91,-22.98 -7.45,-5.38 -20.07,-8.17 -37.94,-8.17l-38.89 0 11.1 -45z"/>
  <path class="fil0" d="M6239.83 178.49l349.17 0 -11.49 45 -40.68 0c-18.94,0 -32.48,2.87 -40.5,8.74 -8.32,5.8 -14.09,15.69 -17.6,29.35l-144.43 568.1c-1.38,6.07 -2.06,11.27 -2.06,15.43 0,10.53 3.05,17.87 9.12,22.17 9.43,6.87 23.06,10.12 41.3,10.12l51.76 0 -11.53 44.96 -340.85 0 11.99 -44.96 38.32 0c27.41,0 44.2,-12.94 50.27,-39.2l144.05 -565.55c1.45,-6.6 2.33,-12.94 2.33,-19.08 0,-9.43 -3.32,-16.84 -9.77,-22.02 -6.69,-5.42 -18.09,-8.06 -34.25,-8.06l-55.76 0 10.61 -45z"/>
  <path class="fil1" d="M3846.5 1044.14c0,0 -61.32,-131.79 -119.08,-255.96l-0.03 -0.2c-50.49,-108.51 -98.33,-211.05 -100.08,-215.08 -3.56,-7.44 -8.29,-20.57 -4.18,-35.72 3.1,-11.32 16.04,-30.88 25.38,-42.85 17.74,-22.66 23.09,-34.56 25.48,-51.02l260.81 559.61 -0.16 0.08 30.92 66.32c32.7,-6.55 64.19,-16.39 94.37,-28.56 -35.45,-76.12 -71.71,-154.3 -94.22,-202.65l-0.31 0.12c0,0 -215.31,-462.64 -219.34,-471.2 -3.53,-7.44 -8.22,-20.61 -4.11,-35.67 3.17,-11.36 16.03,-30.93 25.45,-42.82 17.71,-22.66 22.98,-34.67 25.41,-51.13l197.34 423.35 156.37 335.45c28.39,-17.82 54.66,-38.23 79.02,-60.86 -46.99,-100.99 -109.82,-236.08 -140.93,-303.07l-0.43 0.12c0,0 -215.24,-462.64 -219.35,-471.19 -3.4,-7.4 -8.17,-20.58 -3.98,-35.69 3.09,-11.27 16,-30.92 25.36,-42.84 17.79,-22.67 23.1,-34.6 25.35,-51.07l200.48 429.76 183.86 394.45c64.34,-88.87 102.66,-197.7 102.66,-315.81 0,-298.23 -241.74,-540.01 -540,-540.01 -298.19,0 -539.97,241.78 -539.97,540.01 0,213.61 124.55,397.75 304.46,485.3 -55.43,-119.24 -112.66,-242.21 -114.62,-246.59 -3.42,-7.43 -8.3,-20.6 -4.19,-35.71 3.18,-11.28 16.03,-30.88 25.45,-42.82 17.7,-22.65 23.01,-34.59 25.37,-51.05l195.95 420.07c34.71,6.97 70.71,10.73 107.55,10.73 1.63,0 2.98,-0.2 4.53,-0.23 -5.54,-11.67 -11.12,-23.56 -16.59,-35.57z"/>
 </g>
</svg>
